HIERARCHY
ROOT Hips
{
	OFFSET -0.426677 -0.213829 -0.227704
	CHANNELS 6 Xposition Yposition Zposition Zrotation Yrotation Xrotation 
	JOINT LHipJoint
	{
		OFFSET -0.236106 3.742166 2.472238
		CHANNELS 3 Zrotation Yrotation Xrotation
		JOINT LeftUpLeg
		{
			OFFSET -0.179919 0.970091 7.339288
			CHANNELS 3 Zrotation Yrotation Xrotation
			JOINT LeftLeg
			{
				OFFSET 1.347534 4.254656 -0.182846
				CHANNELS 3 Zrotation Yrotation Xrotation
				JOINT LeftFoot
				{
					OFFSET 4.480455 -0.173640 2.905708
					CHANNELS 3 Zrotation Yrotation Xrotation
					JOINT LeftToeBase
					{
						OFFSET -0.191929 -0.199019 -0.185349
						CHANNELS 3 Zrotation Yrotation Xrotation
						End Site
						{
							OFFSET 0.000000 0.000000 0.000000
						}
					}
				}
			}
		}
	}
	JOINT RHipJoint
	{
		OFFSET 0.287971 1.109652 3.357597
		CHANNELS 3 Zrotation Yrotation Xrotation
		JOINT RightUpLeg
		{
			OFFSET 0.216389 1.016094 1.374660
			CHANNELS 3 Zrotation Yrotation Xrotation
			JOINT RightLeg
			{
				OFFSET 2.404608 0.901589 1.195553
				CHANNELS 3 Zrotation Yrotation Xrotation
				JOINT RightFoot
				{
					OFFSET 0.808239 0.971314 1.175132
					CHANNELS 3 Zrotation Yrotation Xrotation
					JOINT RightToeBase
					{
						OFFSET 2.041891 1.389823 2.549493
						CHANNELS 3 Zrotation Yrotation Xrotation
						End Site
						{
							OFFSET 0.000000 0.000000 0.000000
						}
					}
				}
			}
		}
	}
	JOINT LowerBack
	{
		OFFSET 2.498760 2.902126 2.638630
		CHANNELS 3 Zrotation Yrotation Xrotation
		JOINT Spine
		{
			OFFSET 3.654588 3.036476 3.373277
			CHANNELS 3 Zrotation Yrotation Xrotation
			JOINT Spine1
			{
				OFFSET 3.241783 3.648321 2.891022
				CHANNELS 3 Zrotation Yrotation Xrotation
				JOINT Neck
				{
					OFFSET 2.402566 2.143798 1.408870
					CHANNELS 3 Zrotation Yrotation Xrotation
					JOINT Neck1
					{
						OFFSET 2.065729 2.467530 1.984188
						CHANNELS 3 Zrotation Yrotation Xrotation
						JOINT Head
						{
							OFFSET 1.614769 2.938003 2.748944
							CHANNELS 3 Zrotation Yrotation Xrotation
							End Site
							{
								OFFSET 0.000000 0.000000 0.000000
							}
						}
					}
				}
				JOINT LeftShoulder
				{
					OFFSET 2.432605 3.136487 2.500472
					CHANNELS 3 Zrotation Yrotation Xrotation
					JOINT LeftArm
					{
						OFFSET 1.156560 2.220269 3.228707
						CHANNELS 3 Zrotation Yrotation Xrotation
						JOINT LeftForeArm
						{
							OFFSET 1.855188 1.685132 1.934536
							CHANNELS 3 Zrotation Yrotation Xrotation
							JOINT LeftHand
							{
								OFFSET 1.096181 1.208496 1.112904
								CHANNELS 3 Zrotation Yrotation Xrotation
								JOINT LeftFingerBase
								{
									OFFSET 0.371314 0.236803 0.234831
									CHANNELS 3 Zrotation Yrotation Xrotation
									JOINT LeftHandIndex1
									{
										OFFSET 0.492932 0.463022 0.716647
										CHANNELS 3 Zrotation Yrotation Xrotation
										End Site
										{
											OFFSET 0.000000 0.000000 0.000000
										}
									}
								}
								JOINT LThumb
								{
									OFFSET 0.455482 0.314102 0.249362
									CHANNELS 3 Zrotation Yrotation Xrotation
									End Site
									{
										OFFSET 0.000000 0.000000 0.000000
									}
								}
							}
						}
					}
				}
				JOINT RightShoulder
				{
					OFFSET -0.080287 0.337696 0.200109
					CHANNELS 3 Zrotation Yrotation Xrotation
					JOINT RightArm
					{
						OFFSET 0.527262 1.210279 0.588329
						CHANNELS 3 Zrotation Yrotation Xrotation
						JOINT RightForeArm
						{
							OFFSET -0.173327 -0.025199 0.855651
							CHANNELS 3 Zrotation Yrotation Xrotation
							JOINT RightHand
							{
								OFFSET 0.247200 0.517338 0.192361
								CHANNELS 3 Zrotation Yrotation Xrotation
								JOINT RightFingerBase
								{
									OFFSET 0.339106 0.354873 0.803504
									CHANNELS 3 Zrotation Yrotation Xrotation
									JOINT RightHandIndex1
									{
										OFFSET 0.582247 0.516973 0.662354
										CHANNELS 3 Zrotation Yrotation Xrotation
										End Site
										{
											OFFSET 0.000000 0.000000 0.000000
										}
									}
								}
								JOINT RThumb
								{
									OFFSET 0.470168 0.447399 1.691431
									CHANNELS 3 Zrotation Yrotation Xrotation
									End Site
									{
										OFFSET 0.769491 0.539322 0.739022
									}
								}
							}
						}
					}
				}
			}
		}
	}
}
MOTION
Frames: 12
Frame Time: 0.008333
3.055845 17.759758 2.343410 -0.478120 -0.884087 6.781043 -0.108200 1.397755 0.911724 -17.101557 -5.341439 -17.583508 1.536398 9.422647 29.939610 -0.071360 0.971527 7.257934 0.338536 -2.098136 -6.136109 -1.283320 -1.703811 0.506582 19.903482 7.575720 -18.560394 -2.857802 -10.455878 32.795074 0.299221 -3.242893 4.566712 -0.501236 1.043033 -3.588866 0.018296 0.259080 0.913461 1.739874 0.264365 -2.569511 1.296734 0.183996 -3.031642 -5.495494 -2.677818 -13.230265 3.840914 -2.794143 13.287207 1.166794 -1.359192 7.799045 -1.170849 0.343444 0.265672 -84.910164 2.882776 20.176899 13.954599 -23.946819 -4.594272 -0.514040 -0.416168 2.096695 19.611818 4.298333 1.701799 -7.125000 0.000000 0.000000 -8.721786 34.715488 -0.604182 1.710585 0.195850 -0.551934 81.020668 -4.671955 11.156906 -15.089212 24.358553 -5.039904 0.646384 -0.092625 3.707806 -19.427475 -1.783573 -0.131832 7.125000 0.000000 0.000000 6.485115 -32.903305 -1.236846
3.055741 17.759722 2.342693 -0.478304 -0.884401 6.780832 -0.108373 1.397647 0.911535 -17.101612 -5.341131 -17.583126 1.536514 9.422842 29.940933 -0.070974 0.973195 7.258925 0.338677 -2.097610 -6.135141 -1.283355 -1.703850 0.506431 19.903131 7.574997 -18.562124 -2.858096 -10.456416 32.792572 0.298655 -3.244801 4.564566 -0.501372 1.042546 -3.589806 0.018156 0.259018 0.912967 1.739693 0.264091 -2.569714 1.296769 0.183950 -3.031401 -5.495452 -2.677774 -13.230150 3.840903 -2.794224 13.287050 1.166678 -1.359244 7.798961 -1.171105 0.343016 0.242526 -84.912102 2.878556 20.169855 13.949989 -23.949825 -4.597813 -0.514225 -0.416511 2.093222 19.609568 4.295610 1.699793 -7.125000 0.000000 0.000000 -8.725681 34.712006 -0.609160 1.709991 0.195396 -0.552106 81.019424 -4.673611 11.153147 -15.091260 24.356997 -5.041412 0.646186 -0.092858 3.704372 -19.437963 -1.788480 -0.142060 7.125000 0.000000 0.000000 6.476924 -32.906906 -1.243834
3.055295 17.759611 2.339477 -0.479004 -0.885461 6.780121 -0.108993 1.397275 0.910985 -17.103106 -5.342310 -17.585228 1.535943 9.421381 29.936768 -0.071993 0.968721 7.251549 0.338015 -2.100644 -6.145719 -1.287563 -1.705761 0.503484 19.894745 7.566850 -18.575937 -2.860720 -10.460123 32.780422 0.295678 -3.254620 4.553122 -0.502370 1.038802 -3.598711 0.015343 0.256831 0.908894 1.737903 0.260358 -2.573853 1.293259 0.180755 -3.037277 -5.501637 -2.682784 -13.237366 3.838308 -2.799531 13.280247 1.162922 -1.361383 7.795779 -1.174270 0.340333 0.141835 -84.918091 2.867022 20.154926 13.937495 -23.956606 -4.605598 -0.514562 -0.417221 2.085338 19.605120 4.290248 1.696407 -7.125000 0.000000 0.000000 -8.737751 34.700848 -0.624400 1.707951 0.193825 -0.552645 81.015663 -4.678336 11.141592 -15.096657 24.352999 -5.045430 0.645660 -0.093501 3.694730 -19.464861 -1.801046 -0.167350 7.125000 0.000000 0.000000 6.457704 -32.916096 -1.262790
3.055621 17.759768 2.346501 -0.477360 -0.883217 6.781805 -0.107502 1.398028 0.912018 -17.100637 -5.339481 -17.583347 1.536350 9.421530 29.937880 -0.071602 0.970395 7.253611 0.338330 -2.099281 -6.138659 -1.284449 -1.704281 0.505593 19.902431 7.572904 -18.566725 -2.858506 -10.458543 32.785267 0.296930 -3.251272 4.558217 -0.501943 1.040192 -3.595422 0.015222 0.256591 0.908028 1.737908 0.260893 -2.572701 1.294446 0.181988 -3.032924 -5.497524 -2.679109 -13.231064 3.841595 -2.790940 13.292321 1.169537 -1.356245 7.804341 -1.166398 0.346734 0.322006 -84.906464 2.887730 20.183971 13.953798 -23.947393 -4.597547 -0.514136 -0.416338 2.095919 19.609673 4.297005 1.703285 -7.125000 0.000000 0.000000 -8.723688 34.715286 -0.604907 1.710322 0.195647 -0.551933 81.020630 -4.671197 11.157102 -15.088596 24.358620 -5.040121 0.646427 -0.092573 3.708622 -19.422323 -1.782674 -0.129219 7.125000 0.000000 0.000000 6.487201 -32.901192 -1.235655
3.055595 17.759768 2.347050 -0.477264 -0.883149 6.781891 -0.107327 1.398199 0.912415 -17.099823 -5.338130 -17.580967 1.537033 9.422661 29.942345 -0.070719 0.974907 7.254602 0.338486 -2.099439 -6.138314 -1.284798 -1.704378 0.505311 19.902504 7.572080 -18.568497 -2.857991 -10.458140 32.788715 0.297816 -3.250757 4.559321 -0.501934 1.040189 -3.589773 0.015994 0.258511 0.910557 1.739132 0.263308 -2.570340 1.296494 0.183434 -3.029246 -5.494960 -2.676880 -13.229162 3.842088 -2.790346 13.293304 1.168974 -1.356405 7.802550 -1.168578 0.345327 0.280091 -84.908150 2.884118 20.179623 13.950533 -23.947887 -4.599040 -0.514167 -0.416488 2.095437 19.609161 4.296206 1.703291 -7.125000 0.000000 0.000000 -8.726159 34.712341 -0.608602 1.709635 0.195136 -0.552122 81.019310 -4.673171 11.151687 -15.091389 24.356455 -5.042264 0.646175 -0.092886 3.703765 -19.436417 -1.790304 -0.145301 7.125000 0.000000 0.000000 6.474034 -32.907722 -1.247194
3.055747 17.759813 2.349064 -0.476915 -0.882530 6.782392 -0.106881 1.398406 0.912728 -17.099010 -5.336822 -17.578535 1.537601 9.423385 29.945438 -0.070003 0.977978 7.257362 0.338795 -2.098310 -6.134518 -1.283650 -1.703842 0.506102 19.905540 7.574486 -18.565027 -2.857135 -10.457117 32.791790 0.298612 -3.248544 4.562700 -0.501530 1.041842 -3.583658 0.017173 0.259487 0.911702 1.739635 0.264240 -2.569600 1.296982 0.183754 -3.028890 -5.494738 -2.676844 -13.229586 3.841789 -2.791156 13.292097 1.168124 -1.356904 7.801570 -1.169809 0.344495 0.256269 -84.909515 2.881705 20.176455 13.949312 -23.948332 -4.599653 -0.514181 -0.416476 2.095971 19.609653 4.297308 1.704000 -7.125000 0.000000 0.000000 -8.725746 34.712914 -0.607193 1.709851 0.195300 -0.552049 81.019875 -4.672396 11.153601 -15.090444 24.356918 -5.041909 0.646224 -0.092818 3.704678 -19.433554 -1.789288 -0.143109 7.125000 0.000000 0.000000 6.476409 -32.906265 -1.243925
3.055943 17.759861 2.350773 -0.476481 -0.881158 6.783340 -0.106062 1.398751 0.913182 -17.098166 -5.335658 -17.575716 1.538518 9.424297 29.949123 -0.069226 0.980838 7.259137 0.339022 -2.097448 -6.131085 -1.283196 -1.703644 0.506165 19.906826 7.574289 -18.565954 -2.857601 -10.457623 32.790211 0.298232 -3.251358 4.562501 -0.501631 1.041640 -3.581181 0.016836 0.259459 0.911182 1.739630 0.263936 -2.569563 1.296900 0.184261 -3.028727 -5.493225 -2.675581 -13.228302 3.841873 -2.790075 13.293522 1.168187 -1.356247 7.802718 -1.169082 0.346039 0.312410 -84.906487 2.887431 20.184366 13.958797 -23.945282 -4.596660 -0.514025 -0.415973 2.100976 19.612263 4.301321 1.708423 -7.125000 0.000000 0.000000 -8.718847 34.720673 -0.595908 1.711313 0.196140 -0.551670 81.022560 -4.669572 11.157717 -15.088078 24.358341 -5.040736 0.646274 -0.092720 3.706074 -19.427588 -1.787242 -0.138131 7.125000 0.000000 0.000000 6.479418 -32.904457 -1.242047
3.055689 17.759764 2.346735 -0.477441 -0.882615 6.781427 -0.107661 1.397920 0.911971 -17.101202 -5.338668 -17.580969 1.537111 9.422501 29.943916 -0.070151 0.976014 7.254332 0.338604 -2.098693 -6.133858 -1.284356 -1.704177 0.505414 19.905672 7.573077 -18.568031 -2.857989 -10.457824 32.790298 0.298208 -3.251675 4.565947 -0.501322 1.042756 -3.578690 0.016389 0.258796 0.909796 1.739064 0.262493 -2.570880 1.295589 0.183285 -3.032275 -5.496017 -2.677891 -13.232100 3.839983 -2.792805 13.289876 1.166491 -1.356786 7.801296 -1.170992 0.344604 0.263701 -84.910927 2.879303 20.173012 13.955377 -23.949266 -4.600695 -0.514253 -0.416363 2.095649 19.609934 4.298530 1.708631 -7.125000 0.000000 0.000000 -8.722155 34.718304 -0.598711 1.710878 0.195534 -0.551813 81.021858 -4.669935 11.156222 -15.088066 24.358183 -5.040613 0.646234 -0.092707 3.706118 -19.427513 -1.787656 -0.137958 7.125000 0.000000 0.000000 6.479527 -32.903904 -1.242273
3.055591 17.759779 2.347007 -0.477179 -0.881958 6.781716 -0.107318 1.398145 0.912282 -17.100273 -5.337742 -17.579149 1.537442 9.422579 29.944979 -0.069664 0.977680 7.253893 0.338608 -2.098588 -6.132425 -1.284538 -1.704291 0.505165 19.906034 7.572695 -18.568947 -2.858263 -10.458117 32.789131 0.297898 -3.255099 4.563983 -0.501804 1.040973 -3.581272 0.015394 0.258560 0.909139 1.738921 0.261962 -2.571181 1.295091 0.183098 -3.033809 -5.496561 -2.678460 -13.233711 3.839070 -2.793355 13.289090 1.165501 -1.357008 7.800413 -1.172320 0.344427 0.263167 -84.910713 2.880322 20.176809 13.961645 -23.948202 -4.599613 -0.514171 -0.415993 2.098282 19.611185 4.298051 1.709168 -7.125000 0.000000 0.000000 -8.725709 34.715248 -0.602612 1.710477 0.194960 -0.551948 81.021240 -4.671183 11.152413 -15.089233 24.357218 -5.041048 0.646145 -0.092746 3.705319 -19.430124 -1.789658 -0.142945 7.125000 0.000000 0.000000 6.474720 -32.905888 -1.245475
3.055557 17.759783 2.346444 -0.477291 -0.882213 6.781454 -0.107504 1.398046 0.912109 -17.100616 -5.338233 -17.580023 1.537064 9.422088 29.944084 -0.069701 0.977704 7.253939 0.338737 -2.097605 -6.128919 -1.283449 -1.703764 0.506023 19.909224 7.575294 -18.564943 -2.857200 -10.456939 32.792351 0.298628 -3.253209 4.567073 -0.501481 1.042202 -3.577130 0.016259 0.259145 0.909951 1.739303 0.262660 -2.570586 1.295440 0.183390 -3.033296 -5.495882 -2.678009 -13.233025 3.839372 -2.792895 13.289416 1.165441 -1.356827 7.800919 -1.172148 0.344599 0.262472 -84.910690 2.880476 20.176447 13.961488 -23.948780 -4.600244 -0.514193 -0.416010 2.097400 19.610723 4.297082 1.708673 -7.125000 0.000000 0.000000 -8.726209 34.715061 -0.602229 1.710615 0.194997 -0.551917 81.021736 -4.670702 11.153524 -15.088637 24.357428 -5.040927 0.646158 -0.092729 3.705389 -19.429901 -1.789690 -0.143059 7.125000 0.000000 0.000000 6.475419 -32.905125 -1.243883
3.055275 17.759758 2.344592 -0.477585 -0.882499 6.781006 -0.107842 1.397956 0.912003 -17.100075 -5.337726 -17.575809 1.537522 9.422907 29.947166 -0.068763 0.980578 7.255844 0.339009 -2.096144 -6.123155 -1.282802 -1.703545 0.505779 19.908394 7.573113 -18.568743 -2.857020 -10.457187 32.793732 0.299048 -3.254249 4.569603 -0.501455 1.042405 -3.577364 0.016521 0.258840 0.909399 1.739505 0.263466 -2.569369 1.296393 0.184443 -3.030210 -5.491920 -2.674826 -13.227986 3.841243 -2.788584 13.294992 1.167080 -1.354940 7.803315 -1.170219 0.347443 0.310466 -84.906998 2.887658 20.179726 13.964931 -23.948887 -4.600665 -0.514218 -0.415796 2.098373 19.611259 4.298152 1.710051 -7.125000 0.000000 0.000000 -8.724400 34.719345 -0.595821 1.711613 0.195430 -0.551569 81.024445 -4.668768 11.155718 -15.087515 24.358044 -5.040195 0.646186 -0.092597 3.707297 -19.422449 -1.786721 -0.136832 7.125000 0.000000 0.000000 6.481394 -32.901600 -1.238643
3.055298 17.759743 2.343217 -0.477968 -0.882743 6.780576 -0.108178 1.397649 0.911489 -17.101452 -5.339190 -17.579937 1.535689 9.421102 29.941687 -0.070237 0.970394 7.243227 0.337827 -2.100849 -6.139317 -1.289537 -1.706609 0.501514 19.895477 7.562284 -18.586609 -2.861229 -10.463964 32.770832 0.293305 -3.270854 4.553347 -0.503123 1.036455 -3.596152 0.012683 0.255726 0.904406 1.737612 0.260202 -2.572639 1.293519 0.182331 -3.033760 -5.495101 -2.677714 -13.232351 3.839458 -2.791967 13.290501 1.165680 -1.354798 7.802700 -1.171286 0.346510 0.235435 -84.911255 2.880517 20.167816 13.960963 -23.950153 -4.602051 -0.514206 -0.415450 2.102746 19.613434 4.301271 1.711693 -7.125000 0.000000 0.000000 -8.725424 34.719070 -0.596280 1.711290 0.194695 -0.551767 81.023422 -4.669624 11.154268 -15.087641 24.357922 -5.040440 0.646080 -0.092675 3.705912 -19.427528 -1.790126 -0.143839 7.125000 0.000000 0.000000 6.471740 -32.905949 -1.247895
